<svg width="18" height="18" viewBox="0 0 18 18" fill="none" xmlns="http://www.w3.org/2000/svg">
<g clip-path="url(#clip0_231_6176)">
<path d="M6.52501 15.9548L1.90531 14.63C1.71046 14.5742 1.57501 14.3847 1.57501 14.1683V3.9825C1.57501 3.6684 1.85221 3.4398 2.13481 3.5208L6.52501 4.7799V15.9548Z" fill="#D0D5DC"/>
<path d="M6.52502 15.9547L11.475 14.5354V3.36015L6.52502 4.7799V15.9547Z" fill="#E1E4E7"/>
<path d="M15.8652 15.7941L11.475 14.535V3.36015L16.0947 4.68495C16.2896 4.74075 16.425 4.9302 16.425 5.14665V15.3324C16.425 15.6465 16.1478 15.8751 15.8652 15.7941Z" fill="#D0D5DC"/>
<path d="M11.799 8.7624C12.2198 8.3178 12.9812 7.5186 13.6562 6.84045C14.9423 5.5476 15.03 3.34125 13.7282 2.0646C13.1027 1.45125 12.2891 1.1448 11.475 1.14525C10.6614 1.14525 9.84782 1.45125 9.22232 2.0646C7.91957 3.3417 8.00777 5.54805 9.29432 6.8409C9.96932 7.51905 10.7321 8.31825 11.1528 8.76285C11.3283 8.94825 11.6231 8.9478 11.7986 8.76285L11.799 8.7624Z" fill="#4582ED"/>
<path d="M11.4755 5.3181C12.0031 5.3181 12.4308 4.89038 12.4308 4.36275C12.4308 3.83513 12.0031 3.4074 11.4755 3.4074C10.9478 3.4074 10.5201 3.83513 10.5201 4.36275C10.5201 4.89038 10.9478 5.3181 11.4755 5.3181Z" fill="#FBFBFB"/>
</g>
<defs>
<clipPath id="clip0_231_6176">
<rect width="18" height="18" fill="white"/>
</clipPath>
</defs>
</svg>
