<svg width="27" height="26" viewBox="0 0 27 26" fill="none" xmlns="http://www.w3.org/2000/svg">
<path d="M0.735 1.47C0.735 1.06407 1.06407 0.735 1.47 0.735H18.9956C19.4016 0.735 19.7306 1.06407 19.7306 1.47V9.6445C19.7306 10.0504 19.4016 10.3795 18.9956 10.3795H4.99453C4.39273 10.3795 3.81708 10.6255 3.4011 11.0604L2.00114 12.524C1.54306 13.0029 0.735 12.6786 0.735 12.0159V1.47Z" fill="white" stroke="#5D5D5D" stroke-width="1.47"/>
<path d="M25.9062 13.3784C25.9062 12.9725 25.5772 12.6434 25.1712 12.6434H9.43948C9.03355 12.6434 8.70448 12.9725 8.70448 13.3784V19.9651C8.70448 20.371 9.03355 20.7001 9.43948 20.7001H21.6467C22.2485 20.7001 22.8242 20.9461 23.2401 21.381L24.6401 22.8446C25.0982 23.3235 25.9062 22.9992 25.9062 22.3365V13.3784Z" fill="#5D5D5D" stroke="#5D5D5D" stroke-width="1.47"/>
<path d="M3.96948 7.08614C3.96948 6.68021 4.29855 6.35114 4.70448 6.35114H13.3795C13.7854 6.35114 14.1145 6.68021 14.1145 7.08614C14.1145 7.49206 13.7854 7.82114 13.3795 7.82114H4.70448C4.29855 7.82114 3.96948 7.49206 3.96948 7.08614Z" fill="#5D5D5D"/>
<path d="M10.7481 18.2006C10.7481 17.7947 11.0772 17.4656 11.4831 17.4656H19.1581C19.5641 17.4656 19.8931 17.7947 19.8931 18.2006C19.8931 18.6066 19.5641 18.9356 19.1581 18.9356H11.4831C11.0772 18.9356 10.7481 18.6066 10.7481 18.2006Z" fill="white"/>
<path d="M3.96948 3.9106C3.96948 3.50467 4.29855 3.1756 4.70448 3.1756H15.7612C16.1671 3.1756 16.4962 3.50467 16.4962 3.9106C16.4962 4.31653 16.1671 4.6456 15.7612 4.6456H4.70448C4.29855 4.6456 3.96948 4.31653 3.96948 3.9106Z" fill="#5D5D5D"/>
<path d="M10.7481 15.0251C10.7481 14.6192 11.0772 14.2901 11.4831 14.2901H23.1276C23.5335 14.2901 23.8626 14.6192 23.8626 15.0251C23.8626 15.431 23.5335 15.7601 23.1276 15.7601H11.4831C11.0772 15.7601 10.7481 15.431 10.7481 15.0251Z" fill="white"/>
</svg>
