<svg width="19" height="22" viewBox="0 0 19 22" fill="none" xmlns="http://www.w3.org/2000/svg">
<path d="M18.0714 9.33413V20.4286C18.0714 20.8625 17.7197 21.2143 17.2857 21.2143H14.5357C14.1018 21.2143 13.75 20.8625 13.75 20.4286V15.0268C13.75 13.725 12.6947 12.6696 11.3929 12.6696H9.42857H7.46429C6.16247 12.6696 5.10714 13.725 5.10714 15.0268V20.4286C5.10714 20.8625 4.75537 21.2143 4.32143 21.2143H1.57143C1.13749 21.2143 0.785714 20.8625 0.785714 20.4286V9.33413C0.785714 9.11389 0.878151 8.90376 1.0405 8.75494L8.89764 1.55256C9.19804 1.2772 9.6591 1.2772 9.9595 1.55256L17.8166 8.75494C17.979 8.90376 18.0714 9.11389 18.0714 9.33413Z" fill="#4849E8" stroke="#4849E8" stroke-width="1.57143"/>
</svg>
